<svg width="26" height="17" viewBox="0 0 26 17" fill="none" xmlns="http://www.w3.org/2000/svg">
<g id="Group 2624">
<path id="Vector" d="M25.5 0.25H0.5V16.9168H25.5V0.25Z" fill="white"/>
<path id="Vector_2" d="M8.83315 0.25H0.5V16.9168H8.83315V0.25Z" fill="#007D36"/>
<path id="Vector_3" d="M25.4998 0.25H17.1666V16.9168H25.4998V0.25Z" fill="#D80027"/>
<g id="Group 2098">
<path id="Vector_4" d="M12.9903 11.406C11.4341 11.406 10.1677 10.1398 10.1677 8.5834C10.1677 8.36074 10.3481 8.18018 10.5709 8.18018C10.7938 8.18018 10.9742 8.36074 10.9742 8.5834C10.9742 9.69502 11.8787 10.5995 12.9903 10.5995C14.1019 10.5995 15.0064 9.69502 15.0064 8.5834C15.0064 8.36074 15.1868 8.18018 15.4096 8.18018C15.6325 8.18018 15.8128 8.36074 15.8128 8.5834C15.8128 10.1398 14.5465 11.406 12.9903 11.406V11.406Z" fill="#4BA543"/>
<path id="Vector_5" d="M12.1882 6.56729H12.5873C13.2553 6.56729 13.7969 7.10889 13.7969 7.77696V8.98663L13.2332 9.38985C12.6312 9.38985 12.1208 8.94717 12.0356 8.35123L12.1882 6.56729Z" fill="#966A5B"/>
<path id="Vector_6" d="M13.7969 8.98663H13.2332C12.8319 8.98663 12.4916 8.69151 12.4348 8.29419L12.1882 6.56729H11.8412C11.5962 6.56729 11.4077 6.78404 11.4419 7.02671L11.6363 8.40821C11.7489 9.19771 12.4356 9.79312 13.233 9.79312H13.3937C13.6164 9.79312 13.7969 9.6126 13.7969 9.3899V8.98663H13.7969Z" fill="#785353"/>
</g>
</g>
</svg>
