<svg width="120" height="16" viewBox="0 0 120 16" fill="none" xmlns="http://www.w3.org/2000/svg">
<path d="M3.6123 15.4427C3.22586 15.6413 2.78829 15.2942 2.86609 14.8508L3.69582 10.1213L0.173489 6.76462C-0.155692 6.45092 0.0147086 5.87737 0.455698 5.81472L5.35417 5.11885L7.53829 0.792305C7.73504 0.402565 8.26801 0.402565 8.46476 0.792305L10.6489 5.11885L15.5474 5.81472C15.9883 5.87737 16.1587 6.45092 15.8296 6.76462L12.3072 10.1213L13.137 14.8508C13.2148 15.2942 12.7772 15.6413 12.3908 15.4427L8.00153 13.1868L3.6123 15.4427Z" fill="#FF8C00"/>
<path d="M29.6123 15.4427C29.2259 15.6413 28.7883 15.2942 28.8661 14.8508L29.6958 10.1213L26.1735 6.76462C25.8443 6.45092 26.0147 5.87737 26.4557 5.81472L31.3542 5.11885L33.5383 0.792305C33.735 0.402565 34.268 0.402565 34.4648 0.792305L36.6489 5.11885L41.5474 5.81472C41.9883 5.87737 42.1587 6.45092 41.8296 6.76462L38.3072 10.1213L39.137 14.8508C39.2148 15.2942 38.7772 15.6413 38.3908 15.4427L34.0015 13.1868L29.6123 15.4427Z" fill="#FF8C00"/>
<path d="M56.1883 10.2077L56.2346 9.94398L56.0408 9.7593L52.5184 6.40266C52.5089 6.39353 52.5052 6.38566 52.5032 6.37739C52.5008 6.367 52.5007 6.3528 52.5051 6.33792C52.5095 6.32298 52.5162 6.3149 52.5191 6.31226C52.5192 6.31217 52.5192 6.31207 52.5193 6.31198C52.52 6.31126 52.5208 6.31049 52.526 6.30975L57.4245 5.61388L57.6829 5.57717L57.8005 5.34417L59.9846 1.01763C59.9886 1.00971 59.992 1.00564 59.9936 1.00388C59.9953 1.00207 59.9964 1.00138 59.9968 1.00114C59.9976 1.00062 59.9992 1 60.0015 1C60.0039 1 60.0054 1.00062 60.0063 1.00114C60.0067 1.00138 60.0078 1.00207 60.0094 1.00388C60.0111 1.00564 60.0144 1.00971 60.0184 1.01763L62.2025 5.34417L62.3201 5.57717L62.5786 5.61388L67.477 6.30975C67.4823 6.31049 67.483 6.31126 67.4837 6.31198C67.4838 6.31207 67.4839 6.31217 67.484 6.31226C67.4868 6.3149 67.4935 6.32298 67.498 6.33792C67.5024 6.3528 67.5023 6.367 67.4998 6.37739C67.4979 6.38566 67.4942 6.39353 67.4846 6.40266L63.9623 9.7593L63.7685 9.94398L63.8148 10.2077L64.6445 14.9372C64.6479 14.9565 64.645 14.9681 64.6422 14.9752C64.6389 14.9838 64.6333 14.991 64.6272 14.9958C64.625 14.9975 64.6232 14.9986 64.6219 14.9993C64.6212 14.999 64.6203 14.9985 64.6193 14.998L60.2301 12.7421L60.0015 12.6246L59.773 12.7421L55.3837 14.998C55.3827 14.9985 55.3818 14.999 55.3811 14.9993C55.3798 14.9986 55.378 14.9975 55.3758 14.9958C55.3698 14.991 55.3642 14.9838 55.3608 14.9752C55.358 14.9681 55.3552 14.9565 55.3586 14.9372L56.1883 10.2077Z" fill="url(#paint0_linear_1_1239)" stroke="#FF8C00"/>
<path d="M81.6123 15.4427C81.2259 15.6413 80.7883 15.2942 80.8661 14.8508L81.6958 10.1213L78.1735 6.76462C77.8443 6.45092 78.0147 5.87737 78.4557 5.81472L83.3542 5.11885L85.5383 0.792305C85.735 0.402565 86.268 0.402565 86.4648 0.792305L88.6489 5.11885L93.5474 5.81472C93.9883 5.87737 94.1587 6.45092 93.8296 6.76462L90.3072 10.1213L91.137 14.8508C91.2148 15.2942 90.7772 15.6413 90.3908 15.4427L86.0015 13.1868L81.6123 15.4427Z" fill="#E6E6E6"/>
<path d="M107.612 15.4427C107.226 15.6413 106.788 15.2942 106.866 14.8508L107.696 10.1213L104.173 6.76462C103.844 6.45092 104.015 5.87737 104.456 5.81472L109.354 5.11885L111.538 0.792305C111.735 0.402565 112.268 0.402565 112.465 0.792305L114.649 5.11885L119.547 5.81472C119.988 5.87737 120.159 6.45092 119.83 6.76462L116.307 10.1213L117.137 14.8508C117.215 15.2942 116.777 15.6413 116.391 15.4427L112.002 13.1868L107.612 15.4427Z" fill="#E6E6E6"/>
<defs>
<linearGradient id="paint0_linear_1_1239" x1="52.0001" y1="16" x2="68.0001" y2="16" gradientUnits="userSpaceOnUse">
<stop offset="0.500167" stop-color="#FF8C00"/>
<stop offset="0.500167" stop-color="white"/>
</linearGradient>
</defs>
</svg>
